# AST/ASF file generated using VICON BodyLanguage
# -----------------------------------------------
:version 1.10
:name VICON
:units
  mass 1.0
  length 0.45
  angle deg
:documentation
   .ast/.asf automatically generated from VICON data using
   VICON BodyBuilder and BodyLanguage model FoxedUp or BRILLIANT.MOD
:root
   order TX TY TZ RX RY RZ
   axis XYZ
   position 0 0 0  
   orientation 0 0 0 
:bonedata
  begin
     id 1 
     name lhipjoint
     direction 0.54267 -0.795011 0.271047 
     length 2.39899 
     axis 0 0 0  XYZ
  end
  begin
     id 2 
     name lfemur
     direction 0.34202 -0.939693 0  
     length 7.49701  
     axis 0 0 20  XYZ
    dof rx ry rz
    limits (-160.0 20.0)
           (-70.0 70.0)
           (-60.0 70.0)
  end
  begin
     id 3 
     name ltibia
     direction 0.34202 -0.939693 0   
     length 8.1668   
     axis 0 0 20   XYZ
    dof rx
    limits (-10.0 170.0)
  end
  begin
     id 4 
     name lfoot
     direction 0.0736283 -0.202292 0.976554   
     length 2.13544   
     axis -90 7.62852e-016 20   XYZ
    dof rx rz
    limits (-45.0 90.0)
           (-70.0 20.0)
  end
  begin
     id 5 
     name ltoes
     direction 1.53557e-011 -4.22024e-011 1   
     length 1.07411   
     axis -90 7.62852e-016 20   XYZ
    dof rx
    limits (-90.0 20.0)
  end
  begin
     id 6 
     name rhipjoint
     direction -0.538061 -0.797813 0.272002   
     length 2.39057  
     axis 0 0 0  XYZ 
  end
  begin
     id 7 
     name rfemur
     direction -0.34202 -0.939693 0   
     length 7.50152   
     axis 0 0 -20   XYZ
    dof rx ry rz
    limits (-160.0 20.0)
           (-70.0 70.0)
           (-70.0 60.0)
  end
  begin
     id 8 
     name rtibia
     direction -0.34202 -0.939693 0   
     length 8.05793   
     axis 0 0 -20   XYZ
    dof rx
    limits (-10.0 170.0)
 end
 begin
     id 9 
     name rfoot
     direction -0.0765195 -0.210236 0.974652   
     length 2.28698  
     axis -90 -7.62852e-016 -20   XYZ
    dof rx rz
    limits (-45.0 90.0)
           (-20.0 70.0)
  end
  begin
     id 10 
     name rtoes
     direction -1.53542e-011 -4.21847e-011 1   
     length 1.14762   
     axis -90 -7.62852e-016 -20   XYZ
    dof rx
    limits (-90.0 20.0)
  end
  begin
     id 11 
     name lowerback
     direction -0.0217239 0.996592 -0.0795765   
     length 2.08176   
     axis 0 0 0   XYZ
    dof rx ry rz
    limits (-20.0 45.0)
           (-30.0 30.0)
           (-30.0 30.0)
  end
  begin
     id 12 
     name upperback
     direction -0.00563773 0.999651 -0.0258155   
     length 2.08898   
     axis 0 0 0   XYZ
    dof rx ry rz
    limits (-20.0 45.0)
           (-30.0 30.0)
           (-30.0 30.0)
  end
  begin
     id 13 
     name thorax
     direction 0.0032706 0.999923 0.0119599   
     length 2.0968   
     axis 0 0 0   XYZ
    dof rx ry rz
    limits (-20.0 45.0)
           (-30.0 30.0)
           (-30.0 30.0)
  end
  begin
     id 14 
     name lowerneck
     direction -0.0285886 0.99568 0.0883427   
     length 1.81272   
     axis 0 0 0   XYZ
    dof rx ry rz
    limits (-20.0 45.0)
           (-30.0 30.0)
           (-30.0 30.0)
  end
  begin
     id 15 
     name upperneck
     direction 0.0807535 0.97985 -0.18268   
     length 1.82518   
     axis 0 0 0   XYZ
    dof rx ry rz
    limits (-20.0 45.0)
           (-30.0 30.0)
           (-30.0 30.0)
  end
  begin
     id 16
     name head
     direction 0.0236605 0.997053 -0.0729767  
     length 1.84443  
     axis 0 0 0   XYZ
    dof rx ry rz
    limits (-20.0 45.0)
           (-30.0 30.0)
           (-30.0 30.0)
  end
  begin
     id 17 
     name lclavicle
     direction 0.918986 0.39378 -0.0200683  
     length 3.27822  
     axis 0 0 0   XYZ
    dof ry rz
    limits (-20.0 10.0)
           (0.0 20.0)
  end
  begin
     id 18 
     name lhumerus
     direction 1 -4.4897e-011 2.09544e-027   
     length 5.5568   
     axis 180 -30 -90   XYZ
    dof rx ry rz
    limits (-60.0 90.0)
           (-90.0 90.0)
           (-90.0 90.0)
  end
  begin
     id 19
     name lradius
     direction 1 -4.48957e-011 -1.27696e-026   
     length 3.63979   
     axis 180 -30 -90   XYZ
    dof rx
    limits (-10.0 170.0)
  end
  begin
     id 20
     name lwrist
     direction 1 -4.49001e-011 -1.49001e-026   
     length 1.8199   
     axis 9.0955e-015 90 90   XYZ
    dof ry
    limits (-180.0 0.0)
 end
  begin
     id 21 
     name lhand
     direction 1 -4.48709e-011 -2.9758e-026   
     length 0.569419   
     axis 1.90115e-014 90 90   XYZ
    dof rx rz
    limits (-90.0 90.0)
           (-45.0 45.0)
  end
  begin
     id 22 
     name lfingers
     direction 1 -4.49175e-011 -5.96505e-026   
     length 0.45908   
     axis 3.80223e-014 90 90   XYZ
    dof rx
    limits (0.0 90.0)
  end
  begin
     id 23
     name lthumb
     direction 0.707107 -6.34864e-011 0.707107   
     length 0.65915   
     axis -90 45 -3.84942e-014   XYZ
    dof rx rz
    limits (-45.0 45.0)
           (-45.0 45.0)
  end
  begin
     id 24 
     name rclavicle
     direction -0.911913 0.396426 -0.106115   
     length 3.46301  
     axis 0 0 0   XYZ 
    dof ry rz
    limits (-10.0 20.0)
           (-20.0 0.0)
  end
  begin
     id 25 
     name rhumerus
     direction -1 -4.48965e-011 7.78516e-028  
     length 5.34339   
     axis 180 30 90   XYZ
    dof rx ry rz
    limits (-90.0 60.0)
           (-90.0 90.0)
           (-90.0 90.0)
  end
  begin
     id 26 
     name rradius
     direction -1 -4.48948e-011 -5.79823e-027   
     length 3.65101   
     axis 180 30 90   XYZ
    dof rx
    limits (-10.0 170.0)
  end
  begin
     id 27 
     name rwrist
     direction -1 -4.48995e-011 -1.48996e-026   
     length 1.8255   
     axis 9.0955e-015 -90 -90   XYZ
    dof ry
    limits (-180.0 0.0)
  end
  begin
     id 28
     name rhand
     direction -1 -4.48957e-011 -2.97937e-026   
     length 0.694249   
     axis 1.90115e-014 -90 -90   XYZ
    dof rx rz
    limits (-90.0 90.0)
           (-45.0 45.0)
  end
  begin
     id 29
     name rfingers
     direction -1 -4.4898e-011 -5.95943e-026   
     length 0.559721   
     axis 3.80223e-014 -90 -90   XYZ
    dof rx
    limits (0.0 90.0)
  end
  begin
     id 30
     name rthumb
     direction -0.707107 -6.34969e-011 0.707107   
     length 0.803651   
     axis -90 -45 3.84942e-014   XYZ
    dof rx rz
    limits (-45.0 45.0)
           (-45.0 45.0)
  end
:hierarchy
  begin
    root lhipjoint rhipjoint lowerback
    lhipjoint lfemur
    lfemur ltibia
    ltibia lfoot
    lfoot ltoes
    rhipjoint rfemur
    rfemur rtibia
    rtibia rfoot
    rfoot rtoes
    lowerback upperback
    upperback thorax
    thorax lowerneck lclavicle rclavicle
    lowerneck upperneck
    upperneck head
    lclavicle lhumerus
    lhumerus lradius
    lradius lwrist
    lwrist lhand lthumb
    lhand lfingers
    rclavicle rhumerus
    rhumerus rradius
    rradius rwrist
    rwrist rhand rthumb
    rhand rfingers
  end

#!OML:ASF H:\Terrain\Walking\May29\JustinRory\rory.ASF
:FULLY-SPECIFIED
:DEGREES
292
root 10.1664 17.6888 -1.68057 -14.0802 31.9459 -17.8033
lowerback 5.45074 6.61268 -5.68957
upperback 4.70573 8.67326 -2.90187
thorax 1.47241 4.26218 -0.2313
lowerneck -1.8551 -16.1009 -13.3625
upperneck 25.3374 -26.1011 18.2148
head 13.2142 -11.69 5.21254
rclavicle 9.38264e-014 -7.63333e-014
rhumerus 2.87699 -58.5515 -52.8955
rradius 14.3891
rwrist 23.4709
rhand -19.1522 19.3701
rfingers 7.12502
rthumb 7.15825 -10.4889
lclavicle 9.38264e-014 -7.63333e-014
lhumerus -51.8595 4.50543 56.228
lradius 49.6296
lwrist 7.89587
lhand -17.1875 22.7696
lfingers 7.12502
lthumb 9.05446 52.5553
rfemur -7.44595 -16.7866 25.2167
rtibia 44.6787
rfoot -11.8889 -4.35956
rtoes -27.531
lfemur -26.7488 1.63879 -19.6992
ltibia 32.3978
lfoot -5.81307 8.89567
ltoes 28.8725
293
root 10.2127 17.655 -1.55785 -13.9458 31.9037 -17.1977
lowerback 6.03416 6.49174 -6.23522
upperback 4.60404 8.42696 -2.88264
thorax 0.977398 4.13708 0.0116965
lowerneck -1.70576 -15.9202 -14.131
upperneck 25.0517 -25.8146 18.4851
head 13.1745 -11.6335 5.4876
rclavicle 1.19271e-014 3.18055e-015
rhumerus 3.09512 -58.5842 -53.5064
rradius 14.6691
rwrist 23.5296
rhand -19.438 19.1754
rfingers 7.12502
rthumb 6.88238 -10.6927
lclavicle 1.19271e-014 3.18055e-015
lhumerus -52.3146 4.50077 56.0579
lradius 48.1573
lwrist 8.15839
lhand -17.8601 22.5312
lfingers 7.12502
lthumb 8.40532 52.344
rfemur -8.3326 -17.5554 23.9124
rtibia 47.6008
rfoot -11.4731 -1.89065
rtoes -25.2958
lfemur -26.7507 0.551093 -20.0282
ltibia 33.8674
lfoot -7.32204 10.1567
ltoes 27.4371
294
root 10.2421 17.6138 -1.44169 -13.9712 31.9439 -16.4869
lowerback 6.94564 6.38182 -6.95294
upperback 4.66625 8.16022 -2.91965
thorax 0.467178 4.00086 0.2684
lowerneck -1.91896 -15.7959 -14.4095
upperneck 24.7471 -25.5618 18.5516
head 13.0884 -11.54 5.57855
rclavicle -1.47101e-013 3.81667e-014
rhumerus 3.5329 -58.6812 -54.5308
rradius 15.1302
rwrist 23.3852
rhand -18.922 19.0143
rfingers 7.12502
rthumb 7.38044 -10.837
lclavicle -1.47101e-013 3.81667e-014
lhumerus -52.2685 4.95622 55.6043
lradius 46.3606
lwrist 8.07362
lhand -18.1411 22.409
lfingers 7.12502
lthumb 8.1342 52.2324
rfemur -9.23413 -18.0643 22.496
rtibia 50.6856
rfoot -9.95182 0.523546
rtoes -23.2327
lfemur -26.7392 -0.327323 -20.408
ltibia 35.3852
lfoot -8.0777 10.0127
ltoes 28.522
295
root 10.2592 17.5771 -1.32459 -13.577 32.0636 -15.2231
lowerback 7.7003 6.41088 -8.13394
upperback 4.84731 8.06103 -3.08925
thorax 0.127662 3.93695 0.652105
lowerneck -2.16433 -15.7939 -14.7828
upperneck 24.169 -25.4908 18.8355
head 12.9903 -11.5273 5.71253
rclavicle 6.91771e-014 -7.95139e-014
rhumerus 3.42496 -57.9849 -54.8673
rradius 15.8162
rwrist 22.0032
rhand -18.7155 19.2267
rfingers 7.12502
rthumb 7.5798 -10.6174
lclavicle 6.91771e-014 -7.95139e-014
lhumerus -51.7088 5.21757 55.2947
lradius 44.4371
lwrist 7.99593
lhand -17.3216 22.5157
lfingers 7.12502
lthumb 8.92504 52.307
rfemur -10.39 -18.3235 20.6299
rtibia 53.7367
rfoot -7.47802 2.80232
rtoes -20.0739
lfemur -26.9191 -0.686138 -21.3681
ltibia 36.8897
lfoot -8.74488 9.84377
ltoes 28.7207
296
root 10.2665 17.5461 -1.19566 -13.1774 32.3217 -13.9781
lowerback 8.38604 6.52251 -9.33024
upperback 5.125 8.06965 -3.22085
thorax -0.0803265 3.92192 1.08549
lowerneck -2.52363 -15.9113 -15.2273
upperneck 23.4606 -25.5396 19.0846
head 12.8937 -11.5721 5.79921
rclavicle -7.23576e-014 6.99722e-014
rhumerus 3.0402 -57.7508 -54.7333
rradius 16.5139
rwrist 20.7649
rhand -19.1166 19.8011
rfingers 7.12502
rthumb 7.19258 -10.0566
lclavicle -7.23576e-014 6.99722e-014
lhumerus -50.7374 5.29451 55.1904
lradius 42.3303
lwrist 7.6759
lhand -16.2441 23.3694
lfingers 7.12502
lthumb 9.96469 53.1136
rfemur -11.5534 -18.3026 18.8076
rtibia 56.4606
rfoot -4.54367 4.96257
rtoes -15.043
lfemur -27.1485 -0.489659 -22.3933
ltibia 38.4042
lfoot -9.34099 9.77615
ltoes 27.3494
